<svg
                width="40"
                height="45"
                viewBox="0 0 45 45"
                fill="none"
                xmlns="http://www.w3.org/2000/svg"
              >
                <rect
                  width="45"
                  height="45"
                  rx="10"
                  fill="url(#paint0_linear_20_78)"
                />
                <path
                  d="M27.5706 23.798L29.78 36.2317C29.8048 36.3781 29.7842 36.5286 29.7211 36.663C29.658 36.7974 29.5554 36.9094 29.427 36.9839C29.2986 37.0584 29.1504 37.092 29.0024 37.08C28.8544 37.0681 28.7136 37.0113 28.5988 36.9171L23.3779 32.9986C23.1259 32.8103 22.8197 32.7086 22.5051 32.7086C22.1905 32.7086 21.8843 32.8103 21.6323 32.9986L16.4027 36.9157C16.288 37.0096 16.1473 37.0664 15.9995 37.0783C15.8516 37.0903 15.7037 37.0569 15.5753 36.9826C15.447 36.9083 15.3444 36.7966 15.2811 36.6624C15.2179 36.5283 15.1971 36.378 15.2215 36.2317L17.4294 23.798"
                  stroke="white"
                  stroke-width="1.5"
                  stroke-linecap="round"
                  stroke-linejoin="round"
                />
                <path
                  d="M22.5 25.4166C27.3325 25.4166 31.25 21.4991 31.25 16.6666C31.25 11.8341 27.3325 7.91663 22.5 7.91663C17.6675 7.91663 13.75 11.8341 13.75 16.6666C13.75 21.4991 17.6675 25.4166 22.5 25.4166Z"
                  stroke="white"
                  stroke-width="1.5"
                  stroke-linecap="round"
                  stroke-linejoin="round"
                />
                <defs>
                  <linearGradient
                    id="paint0_linear_20_78"
                    x1="22.5"
                    y1="0"
                    x2="22.5"
                    y2="45"
                    gradientUnits="userSpaceOnUse"
                  >
                    <stop offset="0.1875" stop-color="#FCCDA1" />
                    <stop offset="0.528846" stop-color="#FF9735" />
                  </linearGradient>
                </defs>
              </svg>