 <svg
                width="40"
                height="45"
                viewBox="0 0 45 45"
                fill="none"
                xmlns="http://www.w3.org/2000/svg"
              >
                <rect
                  width="45"
                  height="45"
                  rx="10"
                  fill="url(#paint0_linear_20_63)"
                />
                <path
                  d="M31.25 32.7083C29.3161 32.7083 27.4615 31.9401 26.094 30.5726C24.7266 29.2052 23.9583 27.3505 23.9583 25.4166V37.0833"
                  stroke="white"
                  stroke-width="1.5"
                  stroke-linecap="round"
                  stroke-linejoin="round"
                />
                <path
                  d="M18.125 34.1667H10.8333C10.0598 34.1667 9.31791 33.8594 8.77093 33.3124C8.22395 32.7654 7.91666 32.0236 7.91666 31.25V12.2917C7.91666 11.5181 8.22395 10.7763 8.77093 10.2293C9.31791 9.68231 10.0598 9.37502 10.8333 9.37502H16.5208C17.0086 9.37024 17.4898 9.48788 17.9204 9.71717C18.351 9.94647 18.7171 10.2801 18.9854 10.6875L20.1667 12.4375C20.4322 12.8408 20.7938 13.1718 21.2188 13.4009C21.6439 13.63 22.1192 13.7499 22.6021 13.75H34.1667C34.9402 13.75 35.6821 14.0573 36.229 14.6043C36.776 15.1513 37.0833 15.8931 37.0833 16.6667V23.9584"
                  stroke="white"
                  stroke-width="1.5"
                  stroke-linecap="round"
                  stroke-linejoin="round"
                />
                <path
                  d="M23.9583 25.4167C25.5692 25.4167 26.875 24.1109 26.875 22.5C26.875 20.8892 25.5692 19.5834 23.9583 19.5834C22.3475 19.5834 21.0417 20.8892 21.0417 22.5C21.0417 24.1109 22.3475 25.4167 23.9583 25.4167Z"
                  stroke="white"
                  stroke-width="1.5"
                  stroke-linecap="round"
                  stroke-linejoin="round"
                />
                <path
                  d="M34.1667 35.625C35.7775 35.625 37.0833 34.3191 37.0833 32.7083C37.0833 31.0975 35.7775 29.7916 34.1667 29.7916C32.5558 29.7916 31.25 31.0975 31.25 32.7083C31.25 34.3191 32.5558 35.625 34.1667 35.625Z"
                  stroke="white"
                  stroke-width="1.5"
                  stroke-linecap="round"
                  stroke-linejoin="round"
                />
                <defs>
                  <linearGradient
                    id="paint0_linear_20_63"
                    x1="22.5"
                    y1="0"
                    x2="22.5"
                    y2="45"
                    gradientUnits="userSpaceOnUse"
                  >
                    <stop offset="0.201923" stop-color="#90CAF8" />
                    <stop offset="0.778846" stop-color="#1396ED" />
                  </linearGradient>
                </defs>
              </svg>