<svg width="45" height="45" viewBox="0 0 45 45" fill="none" xmlns="http://www.w3.org/2000/svg">
<g clip-path="url(#clip0_282_10)">
<path d="M20.8793 0.0534379C20.7091 0.0713676 20.1779 0.134297 19.7093 0.189493C17.82 0.405 15.6776 0.972422 13.7974 1.76449C6.99293 4.60758 1.87172 10.8454 0.458787 18C0.126208 19.7016 0.0453491 20.5376 0.0453491 22.5C0.0453491 25.0295 0.296716 26.775 0.962927 28.9807C3.14086 36.1983 8.81086 41.8591 16.0471 44.0455C18.225 44.7033 19.98 44.9547 22.5 44.9547C25.0295 44.9547 26.775 44.7033 28.9807 44.0371C36.1983 41.8591 41.8591 36.1891 44.0455 28.9529C44.7033 26.775 44.9546 25.02 44.9546 22.5C44.9546 21.4288 44.9012 20.2054 44.8379 19.7546C44.1088 14.5529 41.9664 10.1788 38.3945 6.60551C34.8293 3.05965 30.4734 0.909141 25.3793 0.18C24.6776 0.0808598 21.4284 -0.00984332 20.8793 0.0534379ZM13.5446 14.2284C14.0228 14.3726 14.2464 14.5076 14.5705 14.8314C15.2009 15.4712 15.345 15.8217 15.345 16.7843C15.345 17.5054 15.3176 17.64 15.1021 18.0176C14.6872 18.7193 13.7246 19.3676 13.0588 19.3852C12.5902 19.395 12.6095 19.1876 13.1221 18.6479C13.8059 17.9367 13.9046 17.6671 13.9046 16.6043C13.8962 15.5788 13.77 15.2283 13.2933 14.94C12.8967 14.6971 12.4653 14.715 11.835 15.0114C10.1967 15.7954 8.42379 18.405 7.73156 21.0786C6.81293 24.6424 8.44172 27.4946 11.1238 27.0084C11.9064 26.8643 13.3826 26.1091 14.0228 25.5143C14.5529 25.0295 14.5529 25.02 14.6064 24.4174C14.7245 23.1564 15.6143 21.8971 16.8036 21.3121C17.3514 21.0414 17.4874 21.0154 18.225 21.0154C18.9267 21.0154 19.0888 21.0512 19.4309 21.2393C20.5196 21.8616 20.2946 23.31 19.1162 23.31C18.4324 23.31 18.0809 22.9584 18.5766 22.7707C19.0628 22.5907 18.8814 21.915 18.3157 21.7624C17.6495 21.5909 16.8929 22.0412 16.4162 22.905C15.8396 23.9491 15.8133 25.1916 16.3614 25.7576C16.8929 26.3246 17.5588 25.8757 18.0724 24.5872C18.3417 23.9309 18.7288 23.5793 19.1795 23.5793C19.575 23.5793 19.6478 23.8226 19.4759 24.5612C19.2234 25.7038 19.395 26.0005 20.1062 25.6504C20.3396 25.5417 20.7271 25.2907 20.9605 25.1107L21.4014 24.7591L21.6995 23.2017C22.0236 21.4562 22.1484 21.2214 22.8146 21.0966C23.4545 20.9784 23.5986 21.2941 23.3638 22.2926L23.2372 22.8516L23.7059 22.3734C24.8126 21.2393 26.1721 20.6817 26.6403 21.15C26.8917 21.4014 26.8643 21.7171 26.5046 22.8322C26.3341 23.3638 26.0993 24.2016 25.9924 24.6779C25.8303 25.3976 25.8205 25.5691 25.9116 25.6862C26.1998 26.0279 27.0812 25.6764 27.8641 24.9114L28.3229 24.4624L28.3778 23.4626C28.4312 22.3105 28.5384 21.8971 28.8446 21.5276C29.1329 21.1859 29.655 20.9345 29.9338 21.0059C30.2126 21.0786 30.2126 21.3479 29.9612 22.1404C29.6096 23.2291 29.6466 25.7396 30.0066 25.7396C30.1507 25.7396 30.8879 24.9662 31.3566 24.3183L31.7067 23.8402L31.4279 23.5533C30.9417 23.04 30.825 22.7074 30.825 21.8696C30.825 21.2586 30.8703 21.0333 31.0226 20.7352C31.2753 20.2683 31.6709 19.9266 32.1391 19.7905C32.6334 19.6379 33.2459 19.8893 33.4972 20.3396C33.75 20.7984 33.6871 21.8243 33.3626 22.5274L33.1291 23.0397H33.4438C33.8762 23.0397 34.0467 22.9324 34.8212 22.2033C35.2262 21.8162 35.6945 21.4826 36.0446 21.3205C37.4221 20.6736 39.0428 21.0059 39.3117 21.9959C39.5367 22.7883 39.0428 23.3459 38.1776 23.2826C37.5567 23.2376 37.44 23.0752 37.8 22.7707C38.4479 22.2293 37.8 21.5374 36.8729 21.7888C36.3688 21.9245 35.8017 22.4905 35.5053 23.1483C34.9105 24.4624 35.2262 26.01 36.0805 26.01C36.4226 26.01 37.0266 25.3346 37.26 24.6779C37.5388 23.9214 38.1238 23.445 38.5646 23.6162C38.8079 23.7059 38.8259 23.9488 38.6733 24.7138C38.5017 25.5516 38.4753 26.3345 38.61 26.6941C38.6638 26.8284 38.8259 27.0812 38.9795 27.2517C39.2664 27.5755 39.2762 27.6926 39.0329 27.8462C38.9162 27.9271 38.7622 27.8916 38.385 27.6845C37.8629 27.4138 37.4126 26.9276 37.2505 26.4688L37.1517 26.1995L36.7917 26.4688C36.5843 26.6129 36.2605 26.775 36.0721 26.8284C35.325 27.0264 34.4064 26.5141 33.9753 25.6504C33.8034 25.3164 33.75 24.3362 33.8762 23.9583C33.9479 23.7509 33.9479 23.7509 33.6593 23.895C33.5071 23.9762 33.1829 24.0655 32.9316 24.0929C32.5167 24.1386 32.4534 24.1836 32.0403 24.7054C31.4553 25.4331 30.4196 26.4154 29.9967 26.6228C29.0974 27.0717 28.8007 26.9455 28.5659 26.0181L28.4038 25.3976L28.0164 25.7396C27.5221 26.1721 26.5321 26.6941 25.9646 26.8204C25.425 26.9371 24.8484 26.7655 24.6146 26.4055C24.2648 25.8659 24.3816 24.7233 24.9388 23.1838C25.3522 22.0412 25.0559 22.0236 24.0121 23.1124C23.2376 23.9309 22.905 24.5159 22.6895 25.425C22.4645 26.37 22.1938 26.7117 21.5828 26.8559C21.2133 26.9371 21.0414 26.7117 21.1145 26.2174L21.1679 25.8205L20.8259 26.0554C20.3396 26.3879 19.7272 26.6941 19.3043 26.8109C18.8814 26.9276 18.3238 26.8024 18.1891 26.5676C17.9462 26.1545 17.9462 26.1545 17.5686 26.4509C16.7488 27.1171 15.5788 26.9276 14.9853 26.0459L14.7955 25.7671L14.2024 26.3162C12.4914 27.8821 10.3503 28.5838 8.76586 28.0976C6.74965 27.4866 5.63449 25.7576 5.65242 23.265C5.66086 20.7629 6.76758 18.1262 8.63121 16.1733C9.68449 15.0746 10.6745 14.4264 11.6828 14.1834C12.4105 14.0034 12.8528 14.0126 13.5446 14.2284Z" fill="#00C4CC"/>
<path d="M31.7876 20.6283C31.5896 20.8259 31.6624 21.6183 31.9141 22.1224C32.0403 22.3833 32.175 22.5907 32.22 22.5907C32.2559 22.5907 32.3367 22.3833 32.4 22.1305C32.625 21.1954 32.22 20.1955 31.7876 20.6283Z" fill="#00C4CC"/>
</g>
<defs>
<clipPath id="clip0_282_10">
<rect width="45" height="45" fill="white"/>
</clipPath>
</defs>
</svg>
