<svg width="45" height="45" viewBox="0 0 45 45" fill="none" xmlns="http://www.w3.org/2000/svg">
<path d="M3.63566 24.4873C2.53811 23.3897 2.53811 21.6103 3.63566 20.5127L20.5127 3.63566C21.6103 2.53811 23.3897 2.53811 24.4873 3.63566L41.3643 20.5127C42.4619 21.6103 42.4619 23.3897 41.3643 24.4873L24.4873 41.3643C23.3897 42.4619 21.6103 42.4619 20.5127 41.3643L3.63566 24.4873Z" fill="#EE513B"/>
<path d="M17.0844 7.11777L15.3754 8.82684L19.7894 13.2409C19.6109 13.624 19.5111 14.0513 19.5111 14.5018C19.5111 15.7809 20.3148 16.8723 21.4447 17.2986V28.0966C20.3148 28.5228 19.5111 29.6142 19.5111 30.8933C19.5111 32.5437 20.8491 33.8816 22.4994 33.8816C24.1498 33.8816 25.4877 32.5437 25.4877 30.8933C25.4877 29.7338 24.8272 28.7283 23.8618 28.233V17.3133L28.0813 21.5328C27.9114 21.9081 27.8169 22.3248 27.8169 22.7635C27.8169 24.4139 29.1548 25.7518 30.8052 25.7518C32.4555 25.7518 33.7934 24.4139 33.7934 22.7635C33.7934 21.1132 32.4555 19.7753 30.8052 19.7753C30.4844 19.7753 30.1756 19.8257 29.8859 19.9193L25.3543 15.3876C25.441 15.1078 25.4877 14.8102 25.4877 14.5018C25.4877 12.8514 24.1498 11.5135 22.4994 11.5135C22.191 11.5135 21.8936 11.5602 21.6136 11.647L17.0844 7.11777Z" fill="white"/>
</svg>
