<svg width="45" height="45" viewBox="0 0 45 45" fill="none" xmlns="http://www.w3.org/2000/svg">
<path d="M22.5699 11.8696C31.8344 4.67729 27.0796 0 27.0796 0C27.7872 7.43538 19.4245 9.19101 17.1828 14.3004C15.6532 17.787 18.2303 20.8396 22.5668 24.6873C22.1834 23.8351 21.5921 23.0071 20.9936 22.1688C18.9519 19.3096 16.8251 16.3311 22.5699 11.8696Z" fill="#E76F00"/>
<path d="M24.049 26.2646C24.049 26.2646 26.8362 24.0158 24.629 21.5168C17.1466 13.0386 32.8125 9.19104 32.8125 9.19104C23.2477 13.7989 24.6756 16.5339 27.0798 19.8566C29.6538 23.4194 24.049 26.2646 24.049 26.2646Z" fill="#E76F00"/>
<path d="M32.2552 32.9704C40.8408 28.5832 36.8712 24.3672 34.1005 24.9352C33.4213 25.0742 33.1185 25.1947 33.1185 25.1947C33.1185 25.1947 33.3706 24.8063 33.8521 24.6381C39.3335 22.7432 43.5491 30.2272 32.0826 33.1915C32.0826 33.1915 32.2155 33.0747 32.2552 32.9704Z" fill="#5382A1"/>
<path d="M14.3902 27.4175C9.01849 26.7121 17.3356 24.7695 17.3356 24.7695C17.3356 24.7695 14.1057 24.5554 10.1334 26.4435C5.43628 28.6779 21.7521 29.6941 30.1978 27.5097C31.0759 26.9201 32.2895 26.4091 32.2895 26.4091C32.2895 26.4091 28.8334 27.016 25.3914 27.3016C21.1799 27.6485 16.6583 27.7162 14.3902 27.4175Z" fill="#5382A1"/>
<path d="M16.434 31.6066C13.4384 31.302 15.3998 29.8743 15.3998 29.8743C7.64853 32.4041 19.7125 35.273 30.5436 32.1584C29.3923 31.7593 28.6602 31.0294 28.6602 31.0294C23.3666 32.0317 20.3076 31.9997 16.434 31.6066Z" fill="#5382A1"/>
<path d="M17.7391 36.1394C14.7459 35.801 16.4946 34.801 16.4946 34.801C9.45831 36.7343 20.7743 40.7285 29.7327 36.953C28.2654 36.3919 27.2148 35.7442 27.2148 35.7442C23.2187 36.4878 21.3653 36.5462 17.7391 36.1394Z" fill="#5382A1"/>
<path d="M36.4763 38.4452C36.4763 38.4452 37.7703 39.4937 35.0511 40.3048C29.8801 41.8452 13.5294 42.3104 8.98726 40.3663C7.35446 39.6678 10.4164 38.6985 11.3796 38.495C12.3841 38.2808 12.9581 38.3207 12.9581 38.3207C11.1423 37.0628 1.22131 40.7907 7.91875 41.8583C26.1837 44.7711 41.214 40.5465 36.4763 38.4452Z" fill="#5382A1"/>
<path d="M39.375 40.7361C39.0753 44.5706 26.4202 45.3773 18.1792 44.8585C12.8029 44.5195 11.7255 43.6722 11.7097 43.6598C16.8552 44.494 25.5303 44.6459 32.5642 43.3441C38.7989 42.1897 39.375 40.7361 39.375 40.7361Z" fill="#5382A1"/>
</svg>
