<svg width="45" height="45" viewBox="0 0 45 45" fill="none" xmlns="http://www.w3.org/2000/svg">
<path d="M24.1488 3.23258C23.1507 2.67122 21.8493 2.67373 20.8503 3.23258C15.8469 5.99382 10.8433 8.75589 5.83897 11.5159C4.86519 12.0282 4.2084 13.0739 4.21887 14.1593V30.843C4.21184 31.9496 4.90249 33.0054 5.9014 33.5107C7.33881 34.2754 8.73534 35.1177 10.1987 35.8315C11.8892 36.6622 14.004 36.8459 15.7151 35.9796C17.1041 35.2617 17.721 33.6649 17.7192 32.1975C17.7304 26.6915 17.721 21.1853 17.7235 15.6791C17.7566 15.4344 17.5728 15.1729 17.3059 15.1788C16.6665 15.1687 16.0262 15.1729 15.3868 15.1771C15.1452 15.1543 14.9093 15.355 14.9276 15.5978C14.919 21.0684 14.9293 26.5407 14.9224 32.0122C14.9363 32.769 14.425 33.4963 13.6956 33.752C12.0111 34.3425 7.20278 31.2204 7.20278 31.2204C7.02633 31.1387 6.91428 30.9473 6.93157 30.7572C6.93157 25.2529 6.93243 19.7484 6.93157 14.2449C6.90731 14.023 7.04407 13.8232 7.24784 13.7326C12.2348 10.9876 17.2192 8.23576 22.2062 5.4891C22.3795 5.37349 22.6209 5.37385 22.7938 5.48995C27.7807 8.23576 32.766 10.9851 37.7539 13.7302C37.9583 13.8206 38.0893 14.0238 38.0685 14.2449C38.0676 19.7484 38.0701 25.2529 38.0668 30.7565C38.0815 30.9513 37.9808 31.14 37.799 31.2255C32.8586 33.9556 27.8619 36.5977 22.9662 39.4071C22.7526 39.5296 22.5105 39.6683 22.2712 39.5333C20.9838 38.8212 19.712 38.0814 18.4288 37.3624C18.2893 37.2753 18.1117 37.2379 17.9661 37.3354C17.3908 37.6386 16.8497 37.8841 16.189 38.1457C15.2612 38.513 15.4094 38.6632 16.2463 39.1507C17.7469 39.9999 19.25 40.8458 20.7506 41.6959C21.7385 42.3124 23.0659 42.3563 24.0855 41.7866C29.0898 39.0288 34.0926 36.2678 39.0978 33.51C40.094 33.0019 40.7881 31.9503 40.7811 30.8429V14.1593C40.7908 13.0959 40.1591 12.0688 39.2147 11.549C34.1938 8.77426 29.1705 6.00559 24.1488 3.23258Z" fill="#8CC84B"/>
<path d="M31.6996 15.7587C29.7355 14.708 27.3988 14.652 25.2162 14.7894C23.6394 14.9452 21.981 15.3803 20.8322 16.5106C19.6539 17.6469 19.3974 19.4818 19.9571 20.9651C20.3582 22.0133 21.3677 22.6949 22.4117 23.0555C23.7565 23.5302 25.1689 23.677 26.5818 23.8238C27.8705 23.9577 29.1596 24.0917 30.3982 24.4747C30.9042 24.6423 31.4934 24.8988 31.6484 25.4493C31.7915 26.1013 31.6346 26.8591 31.1053 27.312C29.424 28.6428 24.7471 28.4389 23.0859 27.3915C22.4142 26.9453 22.1248 26.1554 22.0071 25.4026C21.9941 25.1681 21.8052 24.9529 21.5505 24.9708C20.9128 24.9632 20.2751 24.9649 19.6373 24.9699C19.4149 24.9512 19.1835 25.1096 19.1713 25.3367C19.0402 28.7844 22.2067 30.2874 25.1774 30.6183C26.8746 30.78 28.6091 30.7707 30.2804 30.4065C31.5367 30.1205 32.7964 29.5937 33.6613 28.626C34.7278 27.45 34.9375 25.6991 34.4592 24.2342C34.0936 23.1411 33.0486 22.44 31.9804 22.0792C30.5277 21.5812 28.8062 21.3134 27.4905 21.1881C25.5782 21.006 23.3057 21.0804 22.7644 19.8238C22.5485 19.1658 22.7322 18.3487 23.3369 17.944C24.9368 16.8588 28.1929 17.003 29.8498 17.8137C30.6106 18.1946 31.0514 18.9771 31.2334 19.767C31.2672 19.999 31.4232 20.2411 31.6918 20.231C32.3252 20.2437 32.9586 20.2344 33.5918 20.2352C33.8094 20.2504 34.0476 20.1277 34.0901 19.9049C34.0632 18.254 33.2202 16.5639 31.6996 15.7587Z" fill="#8CC84B"/>
</svg>
