<svg width="45" height="45" viewBox="0 0 45 45" fill="none" xmlns="http://www.w3.org/2000/svg">
<path fill-rule="evenodd" clip-rule="evenodd" d="M18.3043 2.8125C15.2146 2.8125 12.71 5.23762 12.71 8.22916V11.9792H22.3924V13.0208H8.40676C5.31713 13.0208 2.8125 15.446 2.8125 18.4375V26.5625C2.8125 29.554 5.31713 31.9791 8.40676 31.9791H11.6342V27.3959C11.6342 24.4043 14.1389 21.9791 17.2285 21.9791H27.5563C30.1707 21.9791 32.2899 19.9271 32.2899 17.3959V8.22916C32.2899 5.23762 29.7854 2.8125 26.6957 2.8125H18.3043ZM17.0134 9.47917C18.0828 9.47917 18.9498 8.63969 18.9498 7.60417C18.9498 6.56864 18.0828 5.72916 17.0134 5.72916C15.9438 5.72916 15.0768 6.56864 15.0768 7.60417C15.0768 8.63969 15.9438 9.47917 17.0134 9.47917Z" fill="url(#paint0_linear_283_51)"/>
<path fill-rule="evenodd" clip-rule="evenodd" d="M26.6954 42.1875C29.7851 42.1875 32.2898 39.7624 32.2898 36.7709V33.0209H22.6073V31.9793H36.593C39.6827 31.9793 42.1872 29.554 42.1872 26.5625V18.4375C42.1872 15.446 39.6827 13.0209 36.593 13.0209H33.3656V17.6042C33.3656 20.5958 30.8609 23.0209 27.7714 23.0209H17.4434C14.8291 23.0209 12.7098 25.0729 12.7098 27.6041V36.7709C12.7098 39.7624 15.2145 42.1875 18.3041 42.1875H26.6954ZM27.9865 35.5209C26.9169 35.5209 26.05 36.3603 26.05 37.3959C26.05 38.4314 26.9169 39.2708 27.9865 39.2708C29.056 39.2708 29.9229 38.4314 29.9229 37.3959C29.9229 36.3603 29.056 35.5209 27.9865 35.5209Z" fill="url(#paint1_linear_283_51)"/>
<defs>
<linearGradient id="paint0_linear_283_51" x1="17.5513" y1="2.8125" x2="17.5513" y2="31.9791" gradientUnits="userSpaceOnUse">
<stop stop-color="#327EBD"/>
<stop offset="1" stop-color="#1565A7"/>
</linearGradient>
<linearGradient id="paint1_linear_283_51" x1="27.4486" y1="13.0209" x2="27.4486" y2="42.1875" gradientUnits="userSpaceOnUse">
<stop stop-color="#FFDA4B"/>
<stop offset="1" stop-color="#F9C600"/>
</linearGradient>
</defs>
</svg>
