<svg width="45" height="45" viewBox="0 0 45 45" fill="none" xmlns="http://www.w3.org/2000/svg">
<path d="M22.0009 27.0206C24.268 27.0206 26.1058 25.1828 26.1058 22.9157C26.1058 20.6487 24.268 18.8109 22.0009 18.8109C19.7339 18.8109 17.8961 20.6487 17.8961 22.9157C17.8961 25.1828 19.7339 27.0206 22.0009 27.0206Z" fill="#00D8FF"/>
<path fill-rule="evenodd" clip-rule="evenodd" d="M22.3026 14.2633C29.3013 14.3109 36.9372 14.8215 42.1787 19.4956C42.3327 19.6331 42.4812 19.7761 42.6261 19.9237C43.8627 21.1841 44.5089 23.2192 43.5107 24.8939C41.4628 28.3323 36.8831 29.832 32.4492 30.7551C25.818 32.1356 18.8843 32.1466 12.2558 30.9311C8.44157 30.2308 4.54114 29.0033 1.83054 26.4358C0.775453 25.4366 -0.126551 24.1221 0.014616 22.6591C0.243784 20.2922 2.51438 18.7733 4.42564 17.7448C9.73408 14.8884 16.2021 14.2495 22.3026 14.2633ZM21.7947 15.3385C15.1727 15.3834 8.00524 15.806 2.89205 20.0401C2.7133 20.1877 2.54096 20.3426 2.37504 20.5049C2.26779 20.6094 2.16421 20.7185 2.06429 20.8303C1.16687 21.8386 0.857953 23.4584 1.70496 24.6693C2.55746 25.8876 3.8518 26.7667 5.18464 27.4835C10.1695 30.1639 16.06 30.6396 21.803 30.6598C27.6174 30.6809 33.6134 30.151 38.7495 27.4954C40.7955 26.4367 43.0982 24.882 43.0166 22.88C42.9414 21.043 41.1502 19.9081 39.8091 19.0978C39.4461 18.8787 39.0731 18.6761 38.6945 18.4855C33.5959 15.9307 27.6211 15.3257 21.7947 15.3385Z" fill="#00D8FF"/>
<path fill-rule="evenodd" clip-rule="evenodd" d="M31.2721 3.43464C33.8324 3.49972 35.1588 6.5779 35.3339 8.85124C35.3687 9.30316 35.3815 9.75692 35.376 10.2107C35.3705 10.702 35.344 11.1933 35.3009 11.6828C34.761 17.7439 31.9935 23.5161 28.7348 28.8466C25.5475 34.0606 21.6608 39.26 16.3735 41.6763C14.6254 42.4757 12.5464 42.9688 10.999 42.0769C8.87784 40.855 8.64592 37.9968 8.68534 35.8289C8.69542 35.2963 8.73025 34.7637 8.78525 34.2329C9.60017 26.3862 13.5776 18.953 18.5551 12.5491C21.4591 8.81274 24.9141 5.10664 29.2179 3.76464C29.8953 3.55289 30.4334 3.42455 31.2721 3.43464ZM31.1493 4.50897C28.1435 4.55664 25.4448 6.78415 23.0551 9.09875C16.7722 15.1827 12.1421 23.2741 10.2794 31.7598C10.1355 32.417 10.0145 33.0789 9.92559 33.7453C9.85684 34.2614 9.80642 34.7802 9.77984 35.3009C9.75876 35.7152 9.75142 36.1305 9.76426 36.5457C9.77342 36.8702 9.79451 37.1947 9.83026 37.5174C9.85684 37.764 9.89259 38.0096 9.93751 38.2535C9.97142 38.4341 10.0108 38.6137 10.0567 38.7925C10.0943 38.9373 10.1364 39.0812 10.1841 39.2242C10.559 40.3545 11.5252 41.4343 12.8223 41.4701C15.8482 41.5526 18.6972 39.3461 21.1603 36.9481C25.4843 32.7397 28.7063 27.4514 31.2235 21.8927C33.2549 17.4047 35.113 12.5262 34.0753 7.58624C34.0359 7.39924 33.99 7.21407 33.9378 7.03074C33.8947 6.88132 33.8461 6.73373 33.793 6.58798C33.3896 5.4889 32.4409 4.50622 31.1493 4.50897Z" fill="#00D8FF"/>
<path fill-rule="evenodd" clip-rule="evenodd" d="M12.9333 3.475C16.2003 3.53825 19.1346 5.75567 21.7397 8.23894C26.4936 12.77 29.9999 18.5341 32.66 24.6006C34.7207 29.3004 36.6164 34.5758 34.9316 39.535C34.4008 41.0979 33.0579 42.5279 31.2676 42.5646C27.985 42.6306 24.9426 40.2436 22.3026 37.6742C15.6796 31.2263 10.7626 22.7141 9.07776 13.6867C8.95676 13.0414 8.86051 12.3905 8.79451 11.737C8.74043 11.2035 8.70651 10.6672 8.69734 10.1309C8.69001 9.69828 8.69918 9.26561 8.72943 8.83477C8.74959 8.54694 8.77893 8.26094 8.81834 7.97585C8.85593 7.70818 8.90359 7.44143 8.96318 7.17743C9.00259 7.00235 9.04659 6.8291 9.09701 6.65676C9.5911 4.96734 10.8763 3.46216 12.9333 3.475ZM12.8095 4.55025C10.8964 4.59242 10.021 6.84835 9.84501 8.43144C9.80926 8.75594 9.78726 9.08319 9.77718 9.41044C9.76435 9.82844 9.76985 10.2474 9.79093 10.6654C10.0916 16.7145 12.7958 22.5628 16.0591 27.918C19.1318 32.9597 22.8425 37.9813 27.9465 40.5626C29.4205 41.3079 31.2117 41.8936 32.485 41.1896C34.0818 40.3059 34.278 38.2003 34.3632 36.631C34.3861 36.2038 34.3889 35.7748 34.3751 35.3467C34.3586 34.8096 34.3165 34.2733 34.2532 33.7398C33.6647 28.7559 31.4574 24.0396 28.9219 19.5827C25.7667 14.0387 21.9011 8.51302 16.4304 5.62642C15.2974 5.02875 14.0709 4.54017 12.8095 4.55025Z" fill="#00D8FF"/>
</svg>
