<svg width="45" height="45" viewBox="0 0 45 45" fill="none" xmlns="http://www.w3.org/2000/svg">
<g clip-path="url(#clip0_282_14)">
<path d="M4.39453 0C1.95996 0 0 1.95996 0 4.39453V40.6055C0 43.04 1.95996 45 4.39453 45H40.6055C43.04 45 45 43.04 45 40.6055V4.39453C45 1.95996 43.04 0 40.6055 0H4.39453ZM7.95937 5.85H17.4656C18.6342 5.85 19.575 6.79113 19.575 7.95937V34.6781C19.575 35.8471 18.6342 36.7875 17.4656 36.7875H7.95937C6.79113 36.7875 5.85 35.8471 5.85 34.6781V7.95937C5.85 6.79113 6.79113 5.85 7.95937 5.85ZM27.5344 5.85H37.0406C38.2089 5.85 39.15 6.79113 39.15 7.95937V23.4281C39.15 24.5971 38.2089 25.5375 37.0406 25.5375H27.5344C26.3658 25.5375 25.425 24.5971 25.425 23.4281V7.95937C25.425 6.79113 26.3658 5.85 27.5344 5.85Z" fill="#0052CC"/>
</g>
<defs>
<clipPath id="clip0_282_14">
<rect width="45" height="45" fill="white"/>
</clipPath>
</defs>
</svg>
