<svg width="45" height="45" viewBox="0 0 45 45" fill="none" xmlns="http://www.w3.org/2000/svg">
<path d="M42.0239 8.64281L23.5432 41.6893C23.1616 42.3714 22.1814 42.3755 21.794 41.6966L2.947 8.6459C2.52512 7.90594 3.15765 7.00973 3.99606 7.1595L22.4967 10.4664C22.6147 10.4875 22.7355 10.4873 22.8535 10.4659L40.9671 7.16428C41.8027 7.01198 42.4384 7.90144 42.0239 8.64281Z" fill="url(#paint0_linear_282_36)"/>
<path d="M31.3094 2.82221L17.6332 5.50196C17.5239 5.52335 17.4248 5.58046 17.3515 5.66431C17.2782 5.74817 17.2349 5.854 17.2283 5.96518L16.3871 20.1736C16.3674 20.5083 16.6747 20.7681 17.0012 20.6927L20.8089 19.8141C21.1653 19.7318 21.4872 20.0457 21.4139 20.4038L20.2827 25.9435C20.2065 26.3161 20.5565 26.6351 20.9206 26.5246L23.2724 25.8099C23.6371 25.6992 23.9873 26.019 23.9103 26.3921L22.1125 35.0935C22 35.6378 22.724 35.9345 23.0259 35.4679L23.2275 35.1563L34.3717 12.9161C34.5583 12.5438 34.2367 12.1192 33.8274 12.1981L29.9082 12.9545C29.5398 13.0255 29.2265 12.6826 29.3304 12.3221L31.8885 3.45432C31.9926 3.09319 31.6781 2.74993 31.3094 2.82221Z" fill="url(#paint1_linear_282_36)"/>
<defs>
<linearGradient id="paint0_linear_282_36" x1="2.48678" y1="5.97832" x2="25.4862" y2="37.2134" gradientUnits="userSpaceOnUse">
<stop stop-color="#41D1FF"/>
<stop offset="1" stop-color="#BD34FE"/>
</linearGradient>
<linearGradient id="paint1_linear_282_36" x1="21.4338" y1="3.54966" x2="25.5943" y2="32.0902" gradientUnits="userSpaceOnUse">
<stop stop-color="#FFEA83"/>
<stop offset="0.0833" stop-color="#FFDD35"/>
<stop offset="1" stop-color="#FFA800"/>
</linearGradient>
</defs>
</svg>
