<svg width="45" height="45" viewBox="0 0 45 45" fill="none" xmlns="http://www.w3.org/2000/svg">
<path d="M44.8838 9.86796C44.681 8.84615 44.2279 7.91108 43.5952 7.13861C43.4617 6.9703 43.3223 6.81957 43.1713 6.66883C42.0502 5.54225 40.4768 4.83948 38.7579 4.83948H6.24208C4.5232 4.83948 2.95541 5.54225 1.82909 6.66883C1.67836 6.81957 1.53896 6.9703 1.4052 7.13861C0.772119 7.91099 0.319043 8.84615 0.121816 9.86796C0.0407813 10.2623 0 10.6699 0 11.0819V33.9188C0 34.7949 0.185801 35.6371 0.517148 36.3976C0.824502 37.1235 1.27767 37.7804 1.829 38.3312C1.96875 38.4706 2.10753 38.5988 2.25896 38.7262C3.33879 39.6205 4.73265 40.1606 6.24208 40.1606H38.7579C40.2679 40.1606 41.6678 39.6205 42.7414 38.7206C42.8924 38.5988 43.0319 38.4706 43.1713 38.3312C43.7223 37.7804 44.1754 37.1235 44.4891 36.3976V36.3919C44.8204 35.6314 44.9999 34.7949 44.9999 33.9189V11.0819C45 10.6699 44.9598 10.2623 44.8838 9.86796ZM4.08771 8.92718C4.64537 8.37013 5.39429 8.0329 6.24208 8.0329H38.7579C39.6057 8.0329 40.3612 8.37013 40.9123 8.92718C41.0109 9.02641 41.1038 9.13698 41.1858 9.24684L24.1432 24.0999C23.6732 24.5119 23.0926 24.7153 22.5 24.7153C21.9134 24.7153 21.3332 24.5119 20.8569 24.0999L3.82078 9.24051C3.89619 9.13065 3.98909 9.02641 4.08771 8.92718ZM3.19342 33.9188V12.5451L15.5266 23.3042L3.19966 34.0519C3.19342 34.0112 3.19342 33.9653 3.19342 33.9188ZM38.7579 36.9666H6.24208C5.69004 36.9666 5.17351 36.8215 4.73265 36.5665L17.7385 25.2322L18.9527 26.2885C19.9688 27.1714 21.2404 27.6186 22.5 27.6186C23.7662 27.6186 25.0376 27.1714 26.0536 26.2885L27.2672 25.2322L40.268 36.5665C39.8265 36.8215 39.31 36.9666 38.7579 36.9666ZM41.8066 33.9188C41.8066 33.9653 41.8066 34.0112 41.8006 34.0519L29.4738 23.3105L41.8066 12.5508V33.9188Z" fill="black"/>
</svg>
