<svg width="45" height="45" viewBox="0 0 45 45" fill="none" xmlns="http://www.w3.org/2000/svg">
<path d="M22.5 0C10.125 0 0 10.1431 0 22.6356C0 33.9307 8.23499 43.3057 18.99 45V29.1868H13.275V22.6356H18.99V17.6431C18.99 11.9729 22.3425 8.85541 27.495 8.85541C29.9475 8.85541 32.5125 9.28463 32.5125 9.28463V14.8644H29.6775C26.8875 14.8644 26.01 16.6039 26.01 18.3886V22.6356H32.265L31.2525 29.1868H26.01V45C31.3119 44.1592 36.1399 41.4432 39.6222 37.3419C43.1045 33.2408 45.0121 28.0247 44.9999 22.6356C44.9999 10.1431 34.875 0 22.5 0Z" fill="black"/>
</svg>
