<svg width="45" height="45" viewBox="0 0 45 45" fill="none" xmlns="http://www.w3.org/2000/svg">
<path d="M24.375 7.5C23.3394 7.5 22.5 8.33947 22.5 9.375C22.5 10.4105 23.3394 11.25 24.375 11.25C26.7615 11.25 28.6044 12.0373 29.8461 13.279C31.0877 14.5206 31.875 16.3636 31.875 18.75C31.875 19.7856 32.7144 20.625 33.75 20.625C34.7856 20.625 35.625 19.7856 35.625 18.75C35.625 15.5114 34.5373 12.6669 32.4977 10.6273C30.4581 8.58771 27.6135 7.5 24.375 7.5Z" fill="#0F0F0F"/>
<path d="M9.40125 15.0115C9.61551 13.317 11.8177 11.014 13.5654 11.2696L13.5626 11.2668C15.0235 11.5444 16.2228 13.7431 17.0132 15.1921C17.1431 15.4302 17.2619 15.648 17.369 15.8337C17.907 16.7888 17.5577 17.7564 17.056 18.1648C16.998 18.2115 16.9372 18.2598 16.8746 18.3094C16.207 18.8394 15.3396 19.5279 15.5427 20.2189C15.9375 21.5625 20.625 26.25 22.9305 27.5826C23.6364 27.9906 24.1852 27.1982 24.6553 26.5196C24.7663 26.3593 24.873 26.2054 24.9763 26.0751C25.3689 25.5508 26.3374 25.2375 27.2903 25.755C28.7134 26.5837 30.054 27.5469 31.2938 28.6312C31.9129 29.1487 32.0582 29.9136 31.6292 30.7219C30.8736 32.1456 28.6881 34.023 27.1016 33.6414C24.3307 32.9752 13.125 28.6312 9.52562 16.0463C9.33714 15.4919 9.36834 15.2586 9.3954 15.0561L9.40125 15.0115Z" fill="#0F0F0F"/>
<path d="M24.375 13.125C23.3394 13.125 22.5 13.9645 22.5 15C22.5 16.0355 23.3394 16.875 24.375 16.875C24.7027 16.875 25.1872 17.0577 25.6273 17.4977C26.0672 17.9377 26.25 18.4223 26.25 18.75C26.25 19.7856 27.0894 20.625 28.125 20.625C29.1606 20.625 30 19.7856 30 18.75C30 17.2027 29.2453 15.8123 28.2789 14.846C27.3127 13.8798 25.9222 13.125 24.375 13.125Z" fill="#0F0F0F"/>
<path fill-rule="evenodd" clip-rule="evenodd" d="M14.0951 44.6835C14.1485 44.7129 14.2032 44.7397 14.2592 44.7637C15.2767 45.2013 16.5329 44.2243 19.0451 42.2704L21.5625 40.3125C26.6032 40.4793 30.9637 39.8178 34.335 38.6383C38.105 37.319 41.0692 34.3548 42.3885 30.5848C44.2065 25.3893 44.2065 15.8603 42.3885 10.6649C41.0692 6.89476 38.105 3.93053 34.335 2.6113C28.3318 0.510735 16.5562 0.549921 10.6651 2.6113C6.89495 3.93053 3.93074 6.89476 2.61151 10.6649C0.793559 15.8603 0.793559 25.3893 2.61151 30.5848C3.93074 34.3548 6.89495 37.319 10.6651 38.6383C11.4047 38.897 12.2319 39.1809 13.125 39.375C13.125 42.5576 13.125 44.1489 14.0951 44.6835ZM16.875 39.2075V37.1079C16.875 36.6669 16.5675 36.2857 16.1361 36.1935C14.7076 35.888 13.2876 35.583 11.9036 35.0987C9.21067 34.1565 7.09338 32.039 6.15108 29.3462C5.43504 27.2998 4.99805 24.0849 4.99805 20.6248C4.99805 17.1647 5.43504 13.9497 6.15108 11.9034C7.09338 9.21048 9.21067 7.09317 11.9036 6.15087C14.2804 5.3192 18.2196 4.80526 22.4621 4.80057C26.7041 4.79588 30.6676 5.30103 33.0963 6.15087C35.7892 7.09317 37.9066 9.21048 38.8488 11.9034C39.5649 13.9497 40.002 17.1647 40.002 20.6248C40.002 24.0849 39.5649 27.2998 38.8488 29.3462C37.9066 32.039 35.7892 34.1565 33.0963 35.0987C29.0994 36.4972 24.8606 36.6543 20.6698 36.5302C20.4508 36.5238 20.2361 36.5934 20.0632 36.7278L16.875 39.2075Z" fill="#0F0F0F"/>
</svg>
