<svg width="45" height="45" viewBox="0 0 45 45" fill="none" xmlns="http://www.w3.org/2000/svg">
<path d="M11.2763 15.0115C11.4905 13.317 13.6927 11.014 15.4404 11.2696L15.4376 11.2668C17.1385 11.59 18.4849 14.5174 19.2441 15.8337C19.782 16.7888 19.4327 17.7564 18.9309 18.1648C18.2541 18.7103 17.1956 19.4631 17.4177 20.2189C17.8125 21.5625 22.5 26.25 24.8055 27.5826C25.6781 28.0869 26.3109 26.7566 26.8513 26.0751C27.2439 25.5508 28.2124 25.2375 29.1653 25.755C30.5884 26.5838 31.929 27.5469 33.1688 28.6313C33.7879 29.1488 33.9332 29.9136 33.5042 30.7219C32.7486 32.1456 30.5631 34.023 28.9766 33.6414C26.2058 32.9753 15 28.6313 11.4006 16.0463C11.1982 15.4509 11.2492 15.2258 11.2763 15.0115Z" fill="#0F0F0F"/>
<path fill-rule="evenodd" clip-rule="evenodd" d="M22.5 43.125C20.2057 43.125 18.9364 42.8788 16.875 42.1875L12.9271 44.1615C10.4337 45.4082 7.5 43.5951 7.5 40.8073V36.5625C3.46228 32.7975 1.875 28.4563 1.875 22.5C1.875 11.1091 11.1091 1.875 22.5 1.875C33.8908 1.875 43.125 11.1091 43.125 22.5C43.125 33.8908 33.8908 43.125 22.5 43.125ZM11.25 34.9318L10.0574 33.8198C6.92038 30.8948 5.625 27.6246 5.625 22.5C5.625 13.1802 13.1802 5.625 22.5 5.625C31.8199 5.625 39.375 13.1802 39.375 22.5C39.375 31.8199 31.8199 39.375 22.5 39.375C20.6518 39.375 19.785 39.2081 18.0674 38.6321L16.5909 38.1369L11.25 40.8073V34.9318Z" fill="#0F0F0F"/>
</svg>
